<svg width="50" height="60" viewBox="0 0 50 60" fill="none" xmlns="http://www.w3.org/2000/svg">
<path d="M41.6736 15.6157H37.724V6.76392C37.7235 3.03452 34.6895 0 30.9596 0H7.03735C3.30795 0 0.273438 3.03452 0.273438 6.76392V53.2361C0.273438 56.9655 3.30795 60 7.03735 60H30.9596C34.6895 60 37.7235 56.9655 37.7235 53.2361V38.2146H41.6736C46.096 38.2146 49.6941 34.6165 49.6941 30.1936V23.6366C49.6945 19.2142 46.096 15.6157 41.6736 15.6157ZM24.2305 3.517V5.25604H13.7665V3.517H24.2305ZM34.2065 53.2361C34.2065 55.0264 32.7499 56.483 30.9596 56.483H7.03735C5.24704 56.483 3.79044 55.0264 3.79044 53.2361V6.76392C3.79044 4.9736 5.24704 3.517 7.03735 3.517H10.2495V5.39932C10.2495 7.25967 11.7628 8.77304 13.6232 8.77304H24.3742C26.2341 8.77304 27.7475 7.25967 27.7475 5.39932V3.517H30.9596C32.7499 3.517 34.2065 4.9736 34.2065 6.76392V15.6157H25.2609C20.838 15.6157 17.24 19.2137 17.24 23.6366V39.2111C17.24 40.0182 17.6849 40.7506 18.4009 41.1227C18.7149 41.2862 19.0559 41.3667 19.3956 41.3667C19.7733 41.3667 20.1491 41.2669 20.4842 41.0701L26.1403 38.2146H34.2065V53.2361ZM46.1775 30.1936C46.1775 32.6775 44.157 34.6976 41.6736 34.6976H25.807C25.4207 34.6976 25.0476 34.7997 24.7171 34.9933L20.757 36.9928V23.6366C20.757 21.1533 22.7776 19.1327 25.2609 19.1327H41.6736C44.157 19.1327 46.1775 21.1533 46.1775 23.6366V30.1936Z" fill="#A5A9C0"/>
<path d="M41.1609 21.8998H25.7736C24.8027 21.8998 24.0154 22.6872 24.0154 23.6581C24.0154 24.6295 24.8027 25.4168 25.7736 25.4168H41.1609C42.1318 25.4168 42.9192 24.6295 42.9192 23.6581C42.9192 22.6872 42.1318 21.8998 41.1609 21.8998Z" fill="#305DFB"/>
<path d="M41.1609 27.9048H33.4673C32.4959 27.9048 31.709 28.6922 31.709 29.6631C31.709 30.6345 32.4959 31.4218 33.4673 31.4218H41.1609C42.1318 31.4218 42.9192 30.6345 42.9192 29.6631C42.9192 28.6922 42.1318 27.9048 41.1609 27.9048Z" fill="#305DFB"/>
</svg>
